<svg width="335" height="251" viewBox="0 0 335 251" fill="none" xmlns="http://www.w3.org/2000/svg">
<g filter="url(#filter0_i)">
<circle cx="173.789" cy="122.946" r="122.298" fill="#F2F2F2"/>
</g>
<circle cx="78.7524" cy="172.185" r="78.7524" fill="#E0E0E0"/>
<circle cx="187.687" cy="122.019" r="108.4" fill="#E0E0E0"/>
<circle cx="270.145" cy="184.095" r="64.8549" fill="#E0E0E0"/>
<circle cx="66.3154" cy="185.948" r="63.0019" fill="#C4C4C4"/>
<circle cx="66.3154" cy="185.948" r="63.0019" fill="url(#paint0_linear)"/>
<circle cx="269.219" cy="194.286" r="54.6634" fill="#C4C4C4"/>
<circle cx="269.219" cy="194.286" r="54.6634" fill="url(#paint1_linear)"/>
<g filter="url(#filter1_d)">
<circle cx="173.789" cy="122.946" r="83.3849" fill="#C4C4C4"/>
<circle cx="173.789" cy="122.946" r="83.3849" fill="url(#paint2_radial)" style="mix-blend-mode:lighten"/>
</g>
<g filter="url(#filter2_d)">
<path d="M185.461 177.581C183.764 177.581 182.418 176.86 181.421 175.418C180.424 173.976 179.926 172.014 179.926 169.533C179.926 166.522 180.689 163.9 182.216 162.331C183.743 160.74 185.938 159.945 188.801 159.945C190.413 159.945 192.3 160.531 194.463 161.04V177.104H190.201L190.296 174.495H190.169C189.617 175.492 188.939 176.256 188.133 176.786C187.348 177.316 186.458 177.581 185.461 177.581ZM186.415 173.668C187.073 173.668 187.719 173.318 188.356 172.619C188.992 171.919 189.586 170.986 190.137 169.819V164.475C189.458 164.284 188.78 164.189 188.101 164.189C186.829 164.189 185.864 164.624 185.206 165.493C184.57 166.363 184.252 167.646 184.252 169.342C184.252 170.678 184.443 171.739 184.825 172.523C185.206 173.287 185.736 173.668 186.415 173.668Z" fill="url(#paint3_linear)"/>
<path d="M190.185 161.053H194.575V163.598C195.869 161.604 197.618 160.608 199.824 160.608C201.075 160.608 202.135 160.905 203.005 161.498C203.896 162.071 204.542 162.898 204.945 163.98C205.688 162.813 206.515 161.965 207.426 161.435C208.36 160.883 209.42 160.608 210.608 160.608C212.368 160.608 213.735 161.138 214.711 162.198C215.708 163.237 216.206 164.69 216.206 166.556V177.435H211.721V167.256C211.721 166.408 211.509 165.75 211.085 165.284C210.682 164.796 210.13 164.552 209.431 164.552C208.561 164.552 207.755 164.913 207.013 165.634C206.271 166.355 205.719 167.277 205.359 168.401V177.435H200.874V167.256C200.874 166.429 200.662 165.772 200.237 165.284C199.813 164.796 199.251 164.552 198.551 164.552C197.767 164.552 197.025 164.849 196.325 165.443C195.646 166.015 195.095 166.832 194.671 167.892V177.435H190.185V161.053Z" fill="url(#paint4_linear)"/>
<path d="M221.775 177.912C220.079 177.912 218.732 177.191 217.735 175.749C216.739 174.307 216.24 172.346 216.24 169.864C216.24 166.853 217.004 164.563 218.531 162.993C220.058 161.403 222.252 160.608 225.115 160.608C226.727 160.608 228.614 160.862 230.778 161.371V177.435H226.515L226.61 174.827H226.483C225.932 175.824 225.253 176.587 224.447 177.117C223.663 177.647 222.772 177.912 221.775 177.912ZM222.73 174C223.387 174 224.034 173.65 224.67 172.95C225.306 172.25 225.9 171.317 226.451 170.151V164.807C225.773 164.616 225.094 164.52 224.415 164.52C223.143 164.52 222.178 164.955 221.521 165.825C220.885 166.694 220.566 167.977 220.566 169.674C220.566 171.01 220.757 172.07 221.139 172.855C221.521 173.618 222.051 174 222.73 174Z" fill="url(#paint5_linear)"/>
<path d="M236.706 177.912C234.861 177.912 233.408 177.213 232.348 175.813C231.308 174.392 230.789 172.42 230.789 169.896C230.789 166.906 231.563 164.616 233.111 163.025C234.68 161.414 236.907 160.608 239.791 160.608C240.152 160.608 240.692 160.629 241.413 160.671V154.214H245.835V177.435H241.477L241.572 175.304H241.445C240.894 176.152 240.215 176.799 239.409 177.244C238.625 177.69 237.723 177.912 236.706 177.912ZM237.723 174C238.402 174 239.059 173.713 239.696 173.141C240.332 172.547 240.904 171.709 241.413 170.628V164.807C240.692 164.616 240.003 164.52 239.346 164.52C238.01 164.52 236.992 164.955 236.292 165.825C235.613 166.694 235.274 167.966 235.274 169.642C235.274 170.999 235.486 172.07 235.91 172.855C236.356 173.618 236.96 174 237.723 174Z" fill="url(#paint6_linear)"/>
<path d="M245.439 174.477L253.297 164.902H245.98V161.053H258.768V163.98L250.943 173.586H258.768V177.403H245.439V174.477Z" fill="url(#paint7_linear)"/>
<path d="M264.267 177.881C262.528 177.881 261.16 177.35 260.164 176.29C259.167 175.23 258.669 173.777 258.669 171.932V161.053H263.154V171.2C263.154 172.07 263.366 172.749 263.79 173.236C264.214 173.703 264.787 173.936 265.508 173.936C266.229 173.936 266.918 173.703 267.575 173.236C268.254 172.77 268.816 172.144 269.261 171.36V161.053H273.747V177.435H269.261V175.272C268.646 176.099 267.936 176.746 267.13 177.213C266.345 177.658 265.391 177.881 264.267 177.881Z" fill="url(#paint8_linear)"/>
<path d="M278.379 170.31V177.435H273.894V154.182H278.379V167.033L283.501 161.053H288.813L282.26 168.401L289.163 177.244L284.296 177.912L278.379 170.31Z" fill="url(#paint9_linear)"/>
<path d="M288.498 154.214H293.619V158.349H288.498V154.214ZM286.016 173.586H289.07V164.902H286.016V161.053H293.555V173.586H296.291V177.435H286.016V173.586Z" fill="url(#paint10_linear)"/>
</g>
<defs>
<filter id="filter0_i" x="51.4915" y="0.648071" width="244.596" height="248.596" filterUnits="userSpaceOnUse" color-interpolation-filters="sRGB">
<feFlood flood-opacity="0" result="BackgroundImageFix"/>
<feBlend mode="normal" in="SourceGraphic" in2="BackgroundImageFix" result="shape"/>
<feColorMatrix in="SourceAlpha" type="matrix" values="0 0 0 0 0 0 0 0 0 0 0 0 0 0 0 0 0 0 127 0" result="hardAlpha"/>
<feOffset dy="4"/>
<feGaussianBlur stdDeviation="2"/>
<feComposite in2="hardAlpha" operator="arithmetic" k2="-1" k3="1"/>
<feColorMatrix type="matrix" values="0 0 0 0 0 0 0 0 0 0 0 0 0 0 0 0 0 0 0.25 0"/>
<feBlend mode="normal" in2="shape" result="effect1_innerShadow"/>
</filter>
<filter id="filter1_d" x="86.4044" y="39.561" width="174.77" height="174.77" filterUnits="userSpaceOnUse" color-interpolation-filters="sRGB">
<feFlood flood-opacity="0" result="BackgroundImageFix"/>
<feColorMatrix in="SourceAlpha" type="matrix" values="0 0 0 0 0 0 0 0 0 0 0 0 0 0 0 0 0 0 127 0"/>
<feOffset dy="4"/>
<feGaussianBlur stdDeviation="2"/>
<feColorMatrix type="matrix" values="0 0 0 0 0 0 0 0 0 0 0 0 0 0 0 0 0 0 0.25 0"/>
<feBlend mode="color-burn" in2="BackgroundImageFix" result="effect1_dropShadow"/>
<feBlend mode="normal" in="SourceGraphic" in2="effect1_dropShadow" result="shape"/>
</filter>
<filter id="filter2_d" x="179.926" y="154.182" width="124.365" height="31.7303" filterUnits="userSpaceOnUse" color-interpolation-filters="sRGB">
<feFlood flood-opacity="0" result="BackgroundImageFix"/>
<feColorMatrix in="SourceAlpha" type="matrix" values="0 0 0 0 0 0 0 0 0 0 0 0 0 0 0 0 0 0 127 0"/>
<feOffset dx="4" dy="4"/>
<feGaussianBlur stdDeviation="2"/>
<feColorMatrix type="matrix" values="0 0 0 0 0 0 0 0 0 0 0 0 0 0 0 0 0 0 0.25 0"/>
<feBlend mode="normal" in2="BackgroundImageFix" result="effect1_dropShadow"/>
<feBlend mode="normal" in="SourceGraphic" in2="effect1_dropShadow" result="shape"/>
</filter>
<linearGradient id="paint0_linear" x1="189.54" y1="139.623" x2="66.3154" y2="248.95" gradientUnits="userSpaceOnUse">
<stop offset="0.144584" stop-color="white"/>
<stop offset="0.740825" stop-color="white" stop-opacity="0"/>
</linearGradient>
<linearGradient id="paint1_linear" x1="269.219" y1="139.623" x2="269.219" y2="248.95" gradientUnits="userSpaceOnUse">
<stop stop-color="white"/>
<stop offset="1" stop-color="white" stop-opacity="0"/>
</linearGradient>
<radialGradient id="paint2_radial" cx="0" cy="0" r="1" gradientUnits="userSpaceOnUse" gradientTransform="translate(173.789 122.946) rotate(90) scale(83.3849)">
<stop stop-color="white"/>
<stop offset="1" stop-color="white" stop-opacity="0"/>
</radialGradient>
<linearGradient id="paint3_linear" x1="256" y1="224" x2="180" y2="125" gradientUnits="userSpaceOnUse">
<stop/>
<stop offset="1" stop-opacity="0"/>
</linearGradient>
<linearGradient id="paint4_linear" x1="256" y1="224" x2="180" y2="125" gradientUnits="userSpaceOnUse">
<stop/>
<stop offset="1" stop-opacity="0"/>
</linearGradient>
<linearGradient id="paint5_linear" x1="256" y1="224" x2="180" y2="125" gradientUnits="userSpaceOnUse">
<stop/>
<stop offset="1" stop-opacity="0"/>
</linearGradient>
<linearGradient id="paint6_linear" x1="256" y1="224" x2="180" y2="125" gradientUnits="userSpaceOnUse">
<stop/>
<stop offset="1" stop-opacity="0"/>
</linearGradient>
<linearGradient id="paint7_linear" x1="256" y1="224" x2="180" y2="125" gradientUnits="userSpaceOnUse">
<stop/>
<stop offset="1" stop-opacity="0"/>
</linearGradient>
<linearGradient id="paint8_linear" x1="256" y1="224" x2="180" y2="125" gradientUnits="userSpaceOnUse">
<stop/>
<stop offset="1" stop-opacity="0"/>
</linearGradient>
<linearGradient id="paint9_linear" x1="256" y1="224" x2="180" y2="125" gradientUnits="userSpaceOnUse">
<stop/>
<stop offset="1" stop-opacity="0"/>
</linearGradient>
<linearGradient id="paint10_linear" x1="256" y1="224" x2="180" y2="125" gradientUnits="userSpaceOnUse">
<stop/>
<stop offset="1" stop-opacity="0"/>
</linearGradient>
</defs>
</svg>
